<?xml version="1.0" standalone="no"?>
<!DOCTYPE svg PUBLIC "-//W3C//DTD SVG 20010904//EN"
 "http://www.w3.org/TR/2001/REC-SVG-20010904/DTD/svg10.dtd">
<svg version="1.0" xmlns="http://www.w3.org/2000/svg"
 width="280.000000pt" height="280.000000pt" viewBox="0 0 280.000000 280.000000"
 preserveAspectRatio="xMidYMid meet">
<metadata>
Created by potrace 1.11, written by Peter Selinger 2001-2013
</metadata>
<g transform="translate(0.000000,280.000000) scale(0.100000,-0.100000)"
fill="#000000" stroke="none">
<path d="M1512 2755 l3 -45 -52 0 c-43 0 -55 -4 -72 -26 -16 -20 -18 -31 -10
-50 14 -38 12 -41 -32 -47 -102 -14 -105 -102 -4 -122 22 -5 43 -9 48 -10 4
-2 27 -3 52 -4 44 -1 45 -2 45 -34 0 -18 -4 -37 -9 -43 -13 -13 -41 -150 -41
-198 0 -22 -7 -63 -15 -90 -10 -31 -15 -91 -15 -162 l0 -112 -47 -41 c-45 -38
-52 -41 -110 -41 -35 0 -63 4 -63 9 0 5 -10 13 -22 17 -28 8 -67 52 -72 79
-42 218 -67 278 -148 370 -102 113 -219 147 -403 117 -58 -9 -75 -15 -160 -53
-120 -53 -333 -288 -312 -343 12 -31 57 -16 161 54 58 39 109 70 114 70 5 0
15 7 22 15 7 8 22 15 33 15 16 0 10 -8 -25 -35 -72 -56 -183 -204 -188 -250
-7 -69 28 -75 98 -16 26 22 87 60 136 85 87 45 131 60 90 32 -32 -23 -75 -91
-69 -109 11 -26 32 -27 87 -4 97 42 158 16 158 -66 0 -19 -28 -117 -70 -253
-16 -49 -12 -242 5 -292 48 -138 143 -244 275 -310 41 -20 77 -39 80 -42 6 -6
62 -38 150 -85 117 -63 214 -175 245 -282 l6 -23 -189 0 -189 0 -41 44 c-23
25 -42 49 -42 55 0 5 -14 21 -31 35 l-31 26 -261 0 c-144 0 -268 -4 -276 -9
-29 -18 -16 -65 34 -127 26 -32 51 -61 54 -64 20 -16 28 -47 17 -62 -14 -19
-71 -89 -97 -119 -19 -22 -23 -38 -19 -69 4 -37 28 -40 283 -40 235 0 252 1
283 21 19 11 34 24 34 28 0 9 26 43 68 89 l34 37 199 0 199 1 0 -138 0 -138
70 0 69 0 3 137 3 138 228 0 c126 0 231 -3 233 -7 3 -5 1 -23 -5 -41 -25 -82
-28 -106 -18 -116 24 -24 75 -10 239 67 74 35 113 52 183 82 79 33 113 53 117
68 9 40 -5 55 -88 93 -46 21 -89 39 -95 39 -7 0 -68 27 -136 61 -69 33 -140
63 -158 66 -41 7 -79 -12 -70 -35 4 -9 11 -33 15 -52 4 -19 11 -43 15 -52 7
-17 -7 -18 -218 -18 l-226 0 9 30 c16 55 72 149 119 198 49 52 185 152 266
197 94 51 188 129 250 206 92 114 114 291 58 467 -10 28 -21 52 -25 52 -4 0
-8 6 -8 14 0 23 -37 77 -141 209 l-96 122 41 5 c122 16 137 154 24 204 -21 9
-46 16 -57 16 -29 0 -86 43 -89 69 -5 34 17 81 38 81 10 0 39 9 64 20 55 23
63 54 19 71 -58 20 -59 22 -38 27 11 2 25 8 30 12 6 4 23 10 40 14 52 13 61
52 18 78 -16 9 -64 24 -108 33 -44 9 -80 17 -80 18 -2 13 -68 134 -95 174
l-35 53 -134 0 -133 0 4 -45z"/>
</g>
</svg>
